<svg width="24" height="24" viewBox="0 0 24 24" fill="none" xmlns="http://www.w3.org/2000/svg">
<path d="M9.20001 0C7.71531 0.00168068 6.29191 0.592219 5.24207 1.64206C4.19223 2.6919 3.60169 4.1153 3.60001 5.6V9.58405C3.60051 10.2533 3.7684 10.9117 4.08841 11.4995L5.46116 14.0161L1.82001 16.3828C1.26041 16.7451 0.800596 17.2419 0.482643 17.8278C0.164689 18.4137 -0.0012507 19.07 7.09742e-06 19.7366V24H14.4V22.4H1.60001V19.7366C1.59926 19.3366 1.69883 18.9428 1.88961 18.5913C2.08039 18.2397 2.35629 17.9417 2.69206 17.7243L7.57506 14.5503L5.49306 10.7333C5.30106 10.3807 5.20032 9.98558 5.20001 9.58405V5.6C5.20001 4.53913 5.62144 3.52172 6.37158 2.77157C7.12173 2.02143 8.13914 1.6 9.20001 1.6C10.2609 1.6 11.2783 2.02143 12.0284 2.77157C12.7786 3.52172 13.2 4.53913 13.2 5.6V9.58405C13.1997 9.98558 13.099 10.3807 12.907 10.7333L10.825 14.5503L14.4 16.8742V14.9658L12.9389 14.0158L14.3116 11.4992C14.6316 10.9115 14.7995 10.2532 14.8 9.58405V5.6C14.7983 4.1153 14.2078 2.6919 13.158 1.64206C12.1081 0.592219 10.6847 0.00168068 9.20001 0Z" fill="#FFE7A8"/>
<path d="M20 19.2V16H18.4V19.2H15.2V20.8H18.4V24H20V20.8H23.2V19.2H20Z" fill="#FFE7A8"/>
</svg>
