<svg width="27" height="27" viewBox="0 0 27 27" fill="none" xmlns="http://www.w3.org/2000/svg">
<path d="M21.4675 25.3411L21.4961 25.3041L24.4524 20.5633L17.8148 14.4619L14.2647 16.6076C13.0269 16.4087 11.9049 15.763 11.1111 14.7925C10.3174 13.822 9.907 12.5942 9.95764 11.3415L12.7647 8.28759L8.10114 0.571848L2.91191 2.51293L2.86811 2.52926L2.82624 2.55002C2.60372 2.65905 2.41281 2.82322 2.27168 3.02691C2.13056 3.23059 2.04391 3.467 2.01999 3.71364L1.89111 5.00044C1.64277 7.47981 1.88522 9.98381 2.6046 12.3695C3.32398 14.7552 4.50622 16.9758 6.0838 18.9046C7.66138 20.8333 9.60342 22.4325 11.799 23.6107C13.9946 24.789 16.4008 25.5232 18.8802 25.7716L20.167 25.9005C20.4135 25.9259 20.6624 25.8879 20.89 25.79C21.1177 25.6921 21.3165 25.5375 21.4675 25.3411ZM19.0648 23.9287C9.67041 22.9877 2.79304 14.5793 3.73399 5.18502L3.83828 4.14379L7.31085 2.84511L10.4612 8.05722L8.16665 10.5535L8.13589 10.8607C7.95382 12.6992 8.50847 14.5349 9.67818 15.965C10.8479 17.3951 12.5371 18.3028 14.3752 18.489L14.6824 18.5198L17.5841 16.7659L22.0676 20.887L20.1057 24.033L19.0648 23.9287Z" fill="#FFE7A8"/>
</svg>
