<svg width="27" height="28" viewBox="0 0 27 28" fill="none" xmlns="http://www.w3.org/2000/svg">
<path d="M10.7333 0C9.0012 0.0019608 7.34056 0.690922 6.11574 1.91573C4.89093 3.14055 4.20197 4.80119 4.20001 6.53333V11.1813C4.2006 11.9621 4.39648 12.7303 4.76981 13.416L6.37135 16.3521L2.12334 19.1133C1.47049 19.5359 0.934042 20.1155 0.563097 20.7991C0.192153 21.4826 -0.00144863 22.2483 8.16094e-06 23.026V28H16.3333V26.1333H1.86668V23.026C1.86581 22.5594 1.98197 22.1 2.20454 21.6899C2.4271 21.2797 2.74896 20.9319 3.14068 20.6783L8.83751 16.9754L6.40851 12.5222C6.18453 12.1107 6.06702 11.6498 6.06668 11.1813V6.53333C6.06668 5.29566 6.55834 4.10867 7.43351 3.2335C8.30868 2.35833 9.49567 1.86667 10.7333 1.86667C11.971 1.86667 13.158 2.35833 14.0332 3.2335C14.9083 4.10867 15.4 5.29566 15.4 6.53333V11.1813C15.3997 11.6498 15.2821 12.1107 15.0581 12.5221L12.6292 16.9754L16.3333 19.3832V17.1568L15.0953 16.3518L16.6968 13.4157C17.0702 12.7301 17.2661 11.962 17.2667 11.1813V6.53333C17.2647 4.80119 16.5758 3.14055 15.3509 1.91573C14.1261 0.690922 12.4655 0.0019608 10.7333 0Z" fill="#FFE7A8"/>
<path d="M26.3267 19.7933L25.0067 18.4733L22.1667 21.3133L19.3266 18.4733L18.0067 19.7933L20.8467 22.6333L18.0067 25.4733L19.3266 26.7933L22.1667 23.9533L25.0067 26.7933L26.3267 25.4733L23.4866 22.6333L26.3267 19.7933Z" fill="#FFE7A8"/>
</svg>
