<svg width="32" height="32" viewBox="0 0 32 32" fill="none" xmlns="http://www.w3.org/2000/svg">
<path d="M0.496241 31.4981L0.502119 31.504C0.657977 31.661 0.843333 31.7856 1.04753 31.8708C1.25173 31.9559 1.47074 31.9998 1.69196 32C1.87812 31.9999 2.06298 31.9692 2.23919 31.9091L11.8329 28.6547L30.2427 10.2449C31.3682 9.11937 32.0004 7.59286 32.0003 6.00117C32.0003 4.40949 31.3679 2.88303 30.2424 1.75759C29.1168 0.632156 27.5903 -6.96778e-05 25.9986 5.75975e-09C24.4069 6.96893e-05 22.8805 0.632429 21.755 1.75797L3.34526 20.1677L0.0910907 29.7612C-0.0114157 30.0596 -0.0277776 30.3807 0.0438811 30.6879C0.11554 30.9951 0.272318 31.2759 0.496241 31.4981ZM23.2838 3.28662C24.0048 2.57112 24.98 2.17049 25.9957 2.17244C27.0115 2.17439 27.9851 2.57877 28.7033 3.29703C29.4216 4.01529 29.8259 4.9889 29.8279 6.00465C29.8298 7.02041 29.4291 7.99555 28.7136 8.71653L26.2927 11.1374L20.8628 5.70752L23.2838 3.28662ZM5.23083 21.3396L19.3341 7.23618L24.764 12.6661L10.6607 26.7694L2.44322 29.557L5.23083 21.3396Z" fill="#FFE7A8"/>
</svg>
