<svg width="24" height="24" viewBox="0 0 24 24" fill="none" xmlns="http://www.w3.org/2000/svg">
<path d="M12 0C5.3726 0 0 5.3726 0 12C0 18.6274 5.3726 24 12 24C18.6274 24 24 18.6274 24 12C24 5.3726 18.6274 0 12 0ZM19.3539 19.3539C17.5304 21.1719 15.0954 22.246 12.5233 22.3667C9.95117 22.4875 7.42624 21.6463 5.44046 20.007C3.45469 18.3678 2.15033 16.048 1.78154 13.4996C1.41275 10.9512 2.00595 8.3568 3.44556 6.22189C4.88516 4.08697 7.06804 2.56449 9.56886 1.95111C12.0697 1.33773 14.7093 1.67739 16.9734 2.9039C19.2374 4.13041 20.9638 6.15591 21.816 8.58573C22.6682 11.0156 22.5853 13.6756 21.5833 16.0477C21.0612 17.2836 20.304 18.4065 19.3539 19.3539Z" fill="#FFA8A8"/>
<path d="M8.79999 9.20001H6.79999V11.2H8.79999V9.20001Z" fill="#FFA8A8"/>
<path d="M17.2 9.20001H15.2V11.2H17.2V9.20001Z" fill="#FFA8A8"/>
<path d="M16.1144 14.56C15.805 15.3409 15.2674 16.0104 14.5718 16.4814C13.8763 16.9523 13.055 17.2027 12.215 17.2H11.785C10.945 17.2027 10.1236 16.9523 9.42804 16.4814C8.73244 16.0105 8.19486 15.3409 7.88539 14.56L7.82144 14.4H6.09839L6.39999 15.154C6.83048 16.2303 7.57359 17.1529 8.53343 17.8027C9.49328 18.4526 10.6258 18.8 11.785 18.8H12.215C13.3741 18.8 14.5067 18.4526 15.4665 17.8027C16.4264 17.1529 17.1695 16.2303 17.6 15.154L17.9016 14.4H16.1784L16.1144 14.56Z" fill="#FFA8A8"/>
</svg>
