<svg width="36" height="32" viewBox="0 0 36 32" fill="none" xmlns="http://www.w3.org/2000/svg">
<path d="M33.7778 32H1.77778C1.30645 31.9995 0.854584 31.812 0.521305 31.4787C0.188026 31.1454 0.000548922 30.6935 0 30.2222V1.77778C0.000548922 1.30645 0.188026 0.854587 0.521305 0.521308C0.854584 0.188029 1.30645 0.00055181 1.77778 2.88842e-06H15.605C15.9561 -0.000630783 16.2995 0.103011 16.5917 0.297789C16.8838 0.492567 17.1115 0.769708 17.246 1.09408L18.7654 4.74074H33.7778C34.2491 4.74129 34.701 4.92877 35.0342 5.26205C35.3675 5.59533 35.555 6.04719 35.5556 6.51852V30.2222C35.555 30.6935 35.3675 31.1454 35.0342 31.4787C34.701 31.812 34.2491 31.9995 33.7778 32ZM2.37037 29.6296H33.1852V7.11111H17.1852L15.2098 2.37037H2.37037V29.6296Z" fill="#FFE7A8"/>
</svg>
