<svg width="18" height="24" viewBox="0 0 18 24" fill="none" xmlns="http://www.w3.org/2000/svg">
<path d="M8.8 15.6C10.0726 15.5986 11.2927 15.0924 12.1925 14.1925C13.0924 13.2927 13.5986 12.0726 13.6 10.8V4.8C13.6 3.52696 13.0943 2.30606 12.1941 1.40589C11.2939 0.505713 10.073 0 8.8 0C7.52696 0 6.30606 0.505713 5.40589 1.40589C4.50571 2.30606 4 3.52696 4 4.8V10.8C4.00143 12.0726 4.5076 13.2927 5.40747 14.1925C6.30733 15.0924 7.5274 15.5986 8.8 15.6ZM5.6 4.8C5.6 3.95131 5.93714 3.13737 6.53726 2.53726C7.13737 1.93714 7.95131 1.6 8.8 1.6C9.64869 1.6 10.4626 1.93714 11.0627 2.53726C11.6629 3.13737 12 3.95131 12 4.8V10.8C12 11.6487 11.6629 12.4626 11.0627 13.0627C10.4626 13.6629 9.64869 14 8.8 14C7.95131 14 7.13737 13.6629 6.53726 13.0627C5.93714 12.4626 5.6 11.6487 5.6 10.8V4.8Z" fill="#FFA8A8"/>
<path d="M16 8V10.8C16 14.77 12.77 18 8.8 18C4.83 18 1.6 14.77 1.6 10.8V8H0V10.8C0 15.3827 3.5212 19.1577 8 19.5633V24H9.6V19.5633C14.0788 19.1577 17.6 15.3827 17.6 10.8V8H16Z" fill="#FFA8A8"/>
</svg>

