<svg width="24" height="23" viewBox="0 0 24 23" fill="none" xmlns="http://www.w3.org/2000/svg">
<path d="M6.93322 22.5151C5.56195 22.5151 4.22148 22.0963 3.08131 21.3115C1.94114 20.5268 1.05248 19.4115 0.527714 18.1065C0.00294786 16.8016 -0.134358 15.3657 0.133158 13.9803C0.400674 12.595 1.061 11.3225 2.03063 10.3237L12.0533 0L13.207 1.18797L3.18436 11.5117C2.19003 12.5359 1.63141 13.925 1.6314 15.3734C1.63139 16.8218 2.18999 18.2109 3.18431 19.2351C4.17862 20.2593 5.52721 20.8347 6.93339 20.8347C8.33958 20.8348 9.68817 20.2594 10.6825 19.2352L21.2819 8.31718C21.9671 7.60747 22.3512 6.64682 22.3499 5.64586C22.3485 4.64491 21.9619 3.68534 21.2748 2.97757C20.5876 2.26979 19.656 1.87157 18.6843 1.87022C17.7125 1.86887 16.7799 2.2645 16.0909 2.97036L5.49125 13.8883C5.30053 14.0831 5.14904 14.3147 5.04545 14.5699C4.94187 14.8251 4.88825 15.0989 4.88766 15.3755C4.88707 15.6521 4.93953 15.9261 5.04203 16.1817C5.14452 16.4374 5.29504 16.6697 5.48492 16.8653C5.67481 17.0609 5.90034 17.2159 6.14855 17.3215C6.39677 17.4271 6.66278 17.4811 6.93132 17.4805C7.19987 17.4799 7.46565 17.4247 7.71341 17.318C7.96117 17.2113 8.18604 17.0552 8.37509 16.8588L17.5328 7.42606L18.6864 8.61424L9.52867 18.047C9.18834 18.4004 8.78359 18.6812 8.33765 18.8731C7.89172 19.0651 7.41337 19.1644 6.93006 19.1655C6.44676 19.1665 5.96801 19.0692 5.5213 18.8792C5.07459 18.6891 4.66871 18.4101 4.32696 18.0581C3.98521 17.7061 3.71432 17.288 3.52982 16.8279C3.34533 16.3678 3.25087 15.8746 3.25188 15.3768C3.25288 14.879 3.34931 14.3863 3.53565 13.9269C3.72199 13.4676 3.99457 13.0507 4.33773 12.7001L14.9373 1.78213C15.4291 1.27243 16.0137 0.8677 16.6576 0.591154C17.3015 0.314608 17.9921 0.171679 18.6898 0.17056C19.3874 0.16944 20.0784 0.310153 20.7232 0.584631C21.3679 0.85911 21.9537 1.26196 22.447 1.77008C22.9403 2.27821 23.3314 2.88162 23.5979 3.54574C23.8644 4.20985 24.001 4.92161 23.9999 5.64021C23.9989 6.35881 23.8601 7.07012 23.5916 7.73338C23.3231 8.39664 22.9302 8.9988 22.4354 9.50535L11.8358 20.4234C11.1935 21.0886 10.4294 21.616 9.58792 21.9751C8.7464 22.3341 7.84408 22.5177 6.93322 22.5151Z" fill="#FFA8A8"/>
</svg>

