<svg width="14" height="14" viewBox="0 0 14 14" fill="none" xmlns="http://www.w3.org/2000/svg">
<path d="M13.0188 8.7609L11.1429 7.53348L11.8651 6.20933C12.0393 5.8787 12.1306 5.51068 12.1311 5.13696V3.03782C12.1325 2.44759 11.9616 1.86978 11.6392 1.37534C11.3169 0.880909 10.8571 0.491376 10.3165 0.254576C9.77584 0.0177759 9.1778 -0.0559819 8.59582 0.0423596C8.01383 0.140701 7.47323 0.406861 7.04041 0.808155L7.67446 1.49262C7.97437 1.21532 8.34869 1.03156 8.7515 0.963872C9.15432 0.896182 9.56813 0.947503 9.94221 1.11154C10.3163 1.27558 10.6344 1.54521 10.8575 1.88737C11.0805 2.22954 11.1989 2.62936 11.1981 3.03782V5.13696C11.198 5.35458 11.1459 5.56902 11.0461 5.76239L9.9115 7.84252L12.508 9.54148C12.6794 9.65365 12.82 9.80687 12.9171 9.98723C13.0142 10.1676 13.0647 10.3693 13.064 10.5742V12.1341H10.9649V13.067H13.997V10.5741C13.9979 10.2143 13.9089 9.86 13.7381 9.54333C13.5673 9.22666 13.32 8.9577 13.0188 8.7609Z" fill="#FFE7A8"/>
<path d="M8.8205 9.69384L6.9446 8.46643L7.66685 7.14228C7.84106 6.81164 7.93232 6.44363 7.9328 6.06991V3.97077C7.9322 3.16616 7.61246 2.39465 7.04374 1.82549C6.47503 1.25633 5.70376 0.935996 4.89916 0.934769C3.2281 0.934769 1.86861 2.29673 1.86861 3.97077V6.06991C1.86683 6.44346 1.9571 6.8117 2.13144 7.14207L2.85763 8.47339L0.992631 9.69384C0.691758 9.89033 0.444713 10.1588 0.273916 10.475C0.103119 10.7912 0.013976 11.145 0.0145774 11.5043L0 14H9.7987V11.5071C9.79964 11.1473 9.71065 10.7929 9.53982 10.4763C9.36898 10.1596 9.12172 9.89064 8.8205 9.69384ZM8.86575 13.067H0.938374L0.947412 11.5071C0.946707 11.3023 0.997207 11.1005 1.09432 10.9201C1.19143 10.7398 1.33208 10.5866 1.50348 10.4744L4.08898 8.78258L2.95046 6.69533C2.85176 6.50168 2.80071 6.28726 2.80157 6.06991V3.97077C2.80157 3.41404 3.02272 2.88012 3.41639 2.48645C3.81005 2.09279 4.34398 1.87163 4.90071 1.87163C5.45743 1.87163 5.99136 2.09279 6.38502 2.48645C6.77869 2.88012 6.99985 3.41404 6.99985 3.97077V6.06991C6.99976 6.28752 6.94763 6.50196 6.84781 6.69533L5.71322 8.77547L8.30968 10.4744C8.48108 10.5866 8.62172 10.7398 8.71883 10.9202C8.81595 11.1005 8.86645 11.3023 8.86575 11.5071V13.067Z" fill="#FFE7A8"/>
</svg>
